# xmcd CD database file
#
# Track frame offsets:
#	150
#	22364
#	43503
#	62811
#	85932
#	106127
#	128630
#	146468
#	165861
#	187936
#	205071
#	225280
#	244092
#	267943
#	284705
#	306177
#
# Disc length: 4358 seconds
#
# Revision: 0
# Processed by: cddbd v1.5.1PL2 Copyright (c) Steve Scherf et al.
# Submitted via: CDex 1.50
#
DISCID=d7110410
DTITLE=Eddie Santiago - Las 32 mas grandes de eddie Santiago
DYEAR=2004
DGENRE=Salsa
TTITLE0=Lluvia
TTITLE1=Mia
TTITLE2=Una nueva oportunidad
TTITLE3=Que locura enamorarme de ti
TTITLE4=Insaciable
TTITLE5=Tu me quemas
TTITLE6=Hagamoslo
TTITLE7=Secretos
TTITLE8=Todo empezo
TTITLE9=Odiandote y sin entender
TTITLE10=De profesion tu amante
TTITLE11=Silencio
TTITLE12=Antidoto y veneno
TTITLE13=Me hiciste caer
TTITLE14=De vuelta a casa
TTITLE15=Todas
EXTD=YEAR: 2004
EXTT0=
EXTT1=
EXTT2=
EXTT3=
EXTT4=
EXTT5=
EXTT6=
EXTT7=
EXTT8=
EXTT9=
EXTT10=
EXTT11=
EXTT12=
EXTT13=
EXTT14=
EXTT15=
PLAYORDER=
